# xmcd CD database file
#
# Track frame offsets:
#	150
#	12795
#	28485
#	40236
#	46792
#	62086
#	70041
#	85290
#	99702
#	108571
#	123265
#	135995
#	152014
#
# Disc length: 2112 seconds
#
# Revision: 0
# Processed by: cddbd v1.5.2PL0 Copyright (c) Steve Scherf et al.
# Submitted via: CDex 1.51
#
DISCID=a6083e0d
DTITLE=白日夢 - 一棵開花的樹
DYEAR=2007
DGENRE=New Age
TTITLE0=復甦
TTITLE1=戀家
TTITLE2=說給蕭邦
TTITLE3=一棵開花的樹
TTITLE4=高句麗公主
TTITLE5=鳥之吻
TTITLE6=奔馳在雲端
TTITLE7=秋夜曲
TTITLE8=不再遺憾
TTITLE9=戀家（鋼琴獨奏版）
TTITLE10=復甦（鋼琴獨奏版）
TTITLE11=高句麗公主（奚琴合奏版）
TTITLE12=一棵開花的樹（鋼琴獨奏版）
EXTD=YEAR: 2007
EXTT0=
EXTT1=
EXTT2=
EXTT3=
EXTT4=
EXTT5=
EXTT6=
EXTT7=
EXTT8=
EXTT9=
EXTT10=
EXTT11=
EXTT12=
PLAYORDER=
